<svg xmlns="http://www.w3.org/2000/svg" width="1500" height="1480" viewBox="0 0 1500 1480" font-family="Helvetica, Arial, sans-serif">
<defs>
<marker id="ah" viewBox="0 0 10 10" refX="9" refY="5" markerWidth="8" markerHeight="8" orient="auto-start-reverse"><path d="M0,0 L10,5 L0,10 z" fill="#343a40"/></marker>
<marker id="ahr" viewBox="0 0 10 10" refX="9" refY="5" markerWidth="8" markerHeight="8" orient="auto-start-reverse"><path d="M0,0 L10,5 L0,10 z" fill="#c92a2a"/></marker>
</defs>
<rect x="0" y="0" width="1500" height="1480" fill="#ffffff"/>
<text x="30" y="52" font-size="30" font-weight="700">The RAPP/1 organism, bottom to top</text>
<text x="30" y="84" font-size="15">Center: the layers, from bytes (0, bottom) to you (6, top). Left: what comes in. Right: what goes out or across.</text>
<rect x="1010" y="30" width="118" height="26" rx="13" fill="#b2f2bb" stroke="#2f9e44"/>
<text x="1069" y="48" font-size="13" text-anchor="middle">in force</text>
<rect x="1140" y="30" width="118" height="26" rx="13" fill="#ffe8cc" stroke="#e67700"/>
<text x="1199" y="48" font-size="13" text-anchor="middle">experimental</text>
<rect x="1270" y="30" width="118" height="26" rx="13" fill="#ffc9c9" stroke="#c92a2a"/>
<text x="1329" y="48" font-size="13" text-anchor="middle">gap</text>
<line x1="1010" y1="76" x2="1050" y2="76" stroke="#c92a2a" stroke-width="2.5" stroke-dasharray="7 5" marker-end="url(#ahr)"/>
<text x="1060" y="81" font-size="13">a crossing no specification allows yet</text>
<rect x="370" y="132" width="760" height="118" rx="10" fill="#e9ecef" stroke="#495057" stroke-width="2"/>
<circle cx="348" cy="162" r="14" fill="#495057"/>
<text x="348" y="167" font-size="14" font-weight="700" text-anchor="middle" fill="#ffffff">6</text>
<text x="384" y="160" font-size="17" font-weight="700">You</text>
<text x="384" y="186" font-size="13.5">Talk to your Brainstem. Every change is shown to you in plain words first.</text>
<text x="384" y="206" font-size="13.5">Nothing applies until you confirm the exact plan in a later turn.</text>
<text x="384" y="226" font-size="13.5">“Give me my Brainstem.”</text>
<rect x="370" y="312" width="760" height="118" rx="10" fill="#fff3bf" stroke="#e67700" stroke-width="2"/>
<circle cx="348" cy="342" r="14" fill="#e67700"/>
<text x="348" y="347" font-size="14" font-weight="700" text-anchor="middle" fill="#ffffff">5</text>
<text x="384" y="340" font-size="17" font-weight="700">Brainstem — the one product</text>
<text x="384" y="366" font-size="13.5">Your own AI: frozen Grail kernel · hot-loaded agents (the Hive agent is one file) · soul · memory</text>
<text x="384" y="386" font-size="13.5">It proposes; you decide. The Hive is a place it works on, never its agents folder or soul.</text>
<text x="384" y="406" font-size="13.5">Home: kody-w/RAPP · RAPP Constitution</text>
<rect x="1045" y="322" width="75" height="22" rx="11" fill="#b2f2bb" stroke="#2f9e44"/>
<text x="1082" y="337" font-size="12" text-anchor="middle">in force</text>
<rect x="362" y="484" width="776" height="134" rx="14" fill="none" stroke="#e67700" stroke-width="2" stroke-dasharray="6 4"/>
<circle cx="348" cy="522" r="14" fill="#e67700"/>
<text x="348" y="527" font-size="14" font-weight="700" text-anchor="middle" fill="#ffffff">4</text>
<rect x="370" y="492" width="240" height="118" rx="10" fill="#fff3bf" stroke="#e67700" stroke-width="2"/>
<text x="384" y="520" font-size="17" font-weight="700">References</text>
<text x="384" y="546" font-size="13.5">read-only pointers</text>
<text x="384" y="566" font-size="13.5">never run, synced or changed</text>
<text x="384" y="586" font-size="13.5">fenced as unattributed data</text>
<rect x="495" y="502" width="105" height="22" rx="11" fill="#ffe8cc" stroke="#e67700"/>
<text x="548" y="517" font-size="12" text-anchor="middle">experimental</text>
<rect x="630" y="492" width="240" height="118" rx="10" fill="#fff3bf" stroke="#e67700" stroke-width="2"/>
<text x="644" y="520" font-size="17" font-weight="700">Hive copy</text>
<text x="644" y="546" font-size="13.5">members/&lt;you&gt;/ · your “local</text>
<text x="644" y="566" font-size="13.5">dimension” · one key per</text>
<text x="644" y="586" font-size="13.5">device per Hive</text>
<rect x="755" y="502" width="105" height="22" rx="11" fill="#ffe8cc" stroke="#e67700"/>
<text x="808" y="517" font-size="12" text-anchor="middle">experimental</text>
<rect x="890" y="492" width="240" height="118" rx="10" fill="#fff3bf" stroke="#e67700" stroke-width="2"/>
<text x="904" y="520" font-size="17" font-weight="700">Workspaces</text>
<text x="904" y="546" font-size="13.5">local-first · GODD · private</text>
<text x="904" y="566" font-size="13.5">RAPP Workspace/1</text>
<text x="904" y="586" font-size="13.5">SDK plans (plan_sha256)</text>
<rect x="1045" y="502" width="75" height="22" rx="11" fill="#b2f2bb" stroke="#2f9e44"/>
<text x="1082" y="517" font-size="12" text-anchor="middle">in force</text>
<rect x="370" y="672" width="760" height="118" rx="10" fill="#d3f9d8" stroke="#2f9e44" stroke-width="2"/>
<circle cx="348" cy="702" r="14" fill="#2f9e44"/>
<text x="348" y="707" font-size="14" font-weight="700" text-anchor="middle" fill="#ffffff">3</text>
<text x="384" y="700" font-size="17" font-weight="700">Hive — the organization’s one shared folder</text>
<text x="384" y="726" font-size="13.5">HIVE.md · members/ · requests/ · shared/ · former/ — markdown, git underneath, no owner inside</text>
<text x="384" y="746" font-size="13.5">Every change is one signed commit, judged by the Hive as it stood just before · approvals ≥ 2</text>
<text x="384" y="766" font-size="13.5">Folder convention (experimental) · rapp-hive/1 stays in force</text>
<rect x="1015" y="682" width="105" height="22" rx="11" fill="#ffe8cc" stroke="#e67700"/>
<text x="1068" y="697" font-size="12" text-anchor="middle">experimental</text>
<rect x="370" y="852" width="760" height="118" rx="10" fill="#d0ebff" stroke="#1864ab" stroke-width="2"/>
<circle cx="348" cy="882" r="14" fill="#1864ab"/>
<text x="348" y="887" font-size="14" font-weight="700" text-anchor="middle" fill="#ffffff">2</text>
<text x="384" y="880" font-size="17" font-weight="700">Organization — the accountable body</text>
<text x="384" y="906" font-size="13.5">One owner · one world · one policy · one release scope · exactly one Hive</text>
<text x="384" y="926" font-size="13.5">Body stream: catalog · vector · migration · receipt · observation · rollback</text>
<text x="384" y="946" font-size="13.5">Home: canonical rapp-work/1 (pinned by RAPP_WORK_PIN.json)</text>
<rect x="1045" y="862" width="75" height="22" rx="11" fill="#b2f2bb" stroke="#2f9e44"/>
<text x="1082" y="877" font-size="12" text-anchor="middle">in force</text>
<rect x="370" y="1032" width="760" height="118" rx="10" fill="#f3d9fa" stroke="#862e9c" stroke-width="2"/>
<circle cx="348" cy="1062" r="14" fill="#862e9c"/>
<text x="348" y="1067" font-size="14" font-weight="700" text-anchor="middle" fill="#ffffff">1</text>
<text x="384" y="1060" font-size="17" font-weight="700">Estate — an owner’s signed registry</text>
<text x="384" y="1086" font-size="13.5">Who may sign as whom · which protocols are pinned · which Brainstem kernel (Grail) is declared</text>
<text x="384" y="1106" font-size="13.5">rappid.json · registry.json · owner-anchor.json</text>
<text x="384" y="1126" font-size="13.5">Home: RAPP/1 §13 registry entries</text>
<rect x="1045" y="1042" width="75" height="22" rx="11" fill="#b2f2bb" stroke="#2f9e44"/>
<text x="1082" y="1057" font-size="12" text-anchor="middle">in force</text>
<rect x="370" y="1212" width="760" height="118" rx="10" fill="#f3d9fa" stroke="#862e9c" stroke-width="2"/>
<circle cx="348" cy="1242" r="14" fill="#862e9c"/>
<text x="348" y="1247" font-size="14" font-weight="700" text-anchor="middle" fill="#ffffff">0</text>
<text x="384" y="1240" font-size="17" font-weight="700">RAPP/1 — bytes and identity</text>
<text x="384" y="1266" font-size="13.5">RAPPIDs · the eleven-key frame · hashes · Ed25519 signatures · eggs · registries</text>
<text x="384" y="1286" font-size="13.5">Frozen forms: a frame that passes once passes forever</text>
<text x="384" y="1306" font-size="13.5">Home: kody-w/rapp-1 SPEC.md</text>
<rect x="1045" y="1222" width="75" height="22" rx="11" fill="#b2f2bb" stroke="#2f9e44"/>
<text x="1082" y="1237" font-size="12" text-anchor="middle">in force</text>
<rect x="30" y="312" width="300" height="118" rx="10" fill="#e9ecef" stroke="#495057" stroke-width="2"/>
<text x="44" y="340" font-size="17" font-weight="700">RAR — agent registry</text>
<text x="44" y="366" font-size="13.5">single-file agents; you copy one</text>
<text x="44" y="386" font-size="13.5">into agents/ after reading it</text>
<text x="44" y="406" font-size="13.5">kody-w/RAR · rapp-registry/1.0</text>
<rect x="245" y="322" width="75" height="22" rx="11" fill="#b2f2bb" stroke="#2f9e44"/>
<text x="282" y="337" font-size="12" text-anchor="middle">in force</text>
<rect x="30" y="492" width="300" height="178" rx="10" fill="#e9ecef" stroke="#495057" stroke-width="2"/>
<text x="44" y="520" font-size="17" font-weight="700">Outside knowledge</text>
<text x="44" y="546" font-size="13.5">old Hives · second brains</text>
<text x="44" y="566" font-size="13.5">Obsidian vaults · markdown wikis</text>
<text x="44" y="586" font-size="13.5">docs · other AI tools’ workspaces</text>
<text x="44" y="606" font-size="13.5">→ pinned read-only as a reference</text>
<rect x="237" y="502" width="83" height="22" rx="11" fill="#dee2e6" stroke="#495057"/>
<text x="279" y="517" font-size="12" text-anchor="middle">own shape</text>
<rect x="1170" y="622" width="300" height="108" rx="10" fill="#e9ecef" stroke="#495057" stroke-width="2"/>
<text x="1184" y="650" font-size="17" font-weight="700">Public copy</text>
<text x="1184" y="676" font-size="13.5">a separate repository holding</text>
<text x="1184" y="696" font-size="13.5">exactly the approved files</text>
<text x="1184" y="716" font-size="13.5">PUBLISHED.md · check-public</text>
<rect x="1355" y="632" width="105" height="22" rx="11" fill="#ffe8cc" stroke="#e67700"/>
<text x="1408" y="647" font-size="12" text-anchor="middle">experimental</text>
<rect x="1170" y="750" width="300" height="108" rx="10" fill="#e9ecef" stroke="#495057" stroke-width="2"/>
<text x="1184" y="778" font-size="17" font-weight="700">Hive Mind</text>
<text x="1184" y="804" font-size="13.5">other organizations’ Hives:</text>
<text x="1184" y="824" font-size="13.5">agreements, never shared members</text>
<text x="1184" y="844" font-size="13.5">rapp-federation/1 · Hive Hub</text>
<rect x="1377" y="760" width="83" height="22" rx="11" fill="#ffe8cc" stroke="#e67700"/>
<text x="1419" y="775" font-size="12" text-anchor="middle">candidate</text>
<rect x="1170" y="892" width="300" height="108" rx="10" fill="#e9ecef" stroke="#495057" stroke-width="2"/>
<text x="1184" y="920" font-size="17" font-weight="700">Release rings</text>
<text x="1184" y="946" font-size="13.5">canary → nightly → alpha → beta</text>
<text x="1184" y="966" font-size="13.5">→ each track’s grail, with</text>
<text x="1184" y="986" font-size="13.5">rapp-cicd/1 and rapp-deploy/1 evidence</text>
<rect x="1385" y="902" width="75" height="22" rx="11" fill="#b2f2bb" stroke="#2f9e44"/>
<text x="1422" y="917" font-size="12" text-anchor="middle">in force</text>
<line x1="550" y1="250" x2="550" y2="312" stroke="#343a40" stroke-width="2.5" marker-start="url(#ah)" marker-end="url(#ah)"/>
<text x="562" y="286" font-size="12.5">ask · propose · confirm the exact plan in a later turn</text>
<line x1="950" y1="430" x2="950" y2="492" stroke="#343a40" stroke-width="2.5" marker-end="url(#ah)"/>
<text x="962" y="466" font-size="12.5">operates your Hive copies, references and workspaces</text>
<line x1="420" y1="610" x2="420" y2="672" stroke="#343a40" stroke-width="2.5" marker-end="url(#ah)"/>
<text x="432" y="634" font-size="12.5">bring: one signed copy,</text>
<text x="432" y="651" font-size="12.5">stamped brought_from / sha256</text>
<line x1="680" y1="610" x2="680" y2="672" stroke="#343a40" stroke-width="2.5" marker-start="url(#ah)" marker-end="url(#ah)"/>
<text x="692" y="634" font-size="12.5">signed commits, verified</text>
<text x="692" y="651" font-size="12.5">before checkout</text>
<line x1="750" y1="790" x2="750" y2="852" stroke="#c92a2a" stroke-width="2.5" stroke-dasharray="8 6" marker-end="url(#ahr)"/>
<text x="762" y="814" font-size="12.5">work.vector: the owner notarizes the accepted Hive head</text>
<text x="762" y="831" font-size="12.5">gap G10 — no specification allows this yet</text>
<line x1="750" y1="1032" x2="750" y2="970" stroke="#343a40" stroke-width="2.5" marker-end="url(#ah)"/>
<text x="762" y="1006" font-size="12.5">authorizes the owner (estate registry)</text>
<line x1="750" y1="1212" x2="750" y2="1150" stroke="#343a40" stroke-width="2.5" marker-end="url(#ah)"/>
<text x="762" y="1186" font-size="12.5">RAPP/1 frames · RAPPIDs · registry entries</text>
<line x1="330" y1="402" x2="370" y2="402" stroke="#343a40" stroke-width="2.5" marker-end="url(#ah)"/>
<line x1="330" y1="582" x2="362" y2="582" stroke="#343a40" stroke-width="2.5" marker-end="url(#ah)"/>
<line x1="1130" y1="692" x2="1170" y2="692" stroke="#343a40" stroke-width="2.5" marker-end="url(#ah)"/>
<line x1="1130" y1="770" x2="1170" y2="770" stroke="#343a40" stroke-width="2.5" marker-start="url(#ah)" marker-end="url(#ah)"/>
<line x1="1130" y1="948" x2="1170" y2="948" stroke="#343a40" stroke-width="2.5" marker-end="url(#ah)"/>
<text x="952" y="634" font-size="12.5" fill="#495057">private: never in a Hive</text>
<text x="952" y="651" font-size="12.5" fill="#495057">unless you bring it</text>
<text x="30" y="1370" font-size="14">Holds everywhere: RAPP/1 wins · transport carries, signatures decide · knowledge comes in by signed copy and goes out by approved copy</text>
<text x="30" y="1394" font-size="14">Other people’s text is data · every change is proposed, confirmed in a later turn, and applied as one signed step · accepted history is never rewritten</text>
<text x="30" y="1418" font-size="12.5" fill="#495057">Map: ECOSYSTEM.md · editable source: docs/ecosystem.excalidraw · experimental, 2026-09-24</text>
</svg>
